<svg viewBox="0 0 40 40" fill="none" xmlns="http://www.w3.org/2000/svg">
<g clip-path="url(#clip0_37_1884)">
<path d="M29 30.5H11C10.175 30.5 9.5 29.825 9.5 29V11C9.5 10.175 10.175 9.5 11 9.5H18.5C19.325 9.5 20 8.825 20 8C20 7.175 19.325 6.5 18.5 6.5H9.5C7.835 6.5 6.5 7.85 6.5 9.5V30.5C6.5 32.15 7.85 33.5 9.5 33.5H30.5C32.15 33.5 33.5 32.15 33.5 30.5V21.5C33.5 20.675 32.825 20 32 20C31.175 20 30.5 20.675 30.5 21.5V29C30.5 29.825 29.825 30.5 29 30.5ZM23 8C23 8.825 23.675 9.5 24.5 9.5H28.385L14.69 23.195C14.105 23.78 14.105 24.725 14.69 25.31C15.275 25.895 16.22 25.895 16.805 25.31L30.5 11.615V15.5C30.5 16.325 31.175 17 32 17C32.825 17 33.5 16.325 33.5 15.5V8C33.5 7.175 32.825 6.5 32 6.5H24.5C23.675 6.5 23 7.175 23 8Z" fill="currentColor"/>
</g>
<defs>
<clipPath id="clip0_37_1884">
<rect width="36" height="36" fill="currentColor" transform="translate(2 2)"/>
</clipPath>
</defs>
</svg>
