<svg viewBox="0 0 40 40" fill="none" xmlns="http://www.w3.org/2000/svg">
<path d="M10.5272 37.3463H3.28781V14.5635H10.5272V37.3463ZM6.90752 11.3696C4.56536 11.3696 2.86197 9.66621 2.86197 7.32405C2.86197 4.98189 4.77829 3.2785 6.90752 3.2785C9.24968 3.2785 10.9531 4.98189 10.9531 7.32405C10.9531 9.66621 9.24968 11.3696 6.90752 11.3696ZM36.9298 37.3463H29.6904V24.9967C29.6904 21.377 28.1999 20.3124 26.0706 20.3124C23.9414 20.3124 21.8122 22.0158 21.8122 25.2096V37.3463H14.5728V14.5635H21.3863V17.7573C22.0251 16.2669 24.5802 13.9247 28.1999 13.9247C32.2454 13.9247 36.5039 16.2669 36.5039 23.2933V37.3463H36.9298Z" fill="currentColor"/>
</svg>
