<svg viewBox="0 0 25 25" fill="none" xmlns="http://www.w3.org/2000/svg">
<g clip-path="url(#clip0_37_1850)">
<path d="M7.12488 5.34954C7.18431 6.23107 7.33288 7.09278 7.57059 7.91488L6.38202 9.10345C5.97592 7.91488 5.7184 6.65697 5.62926 5.34954H7.12488ZM16.891 17.2551C17.7329 17.4928 18.5946 17.6414 19.4662 17.7008V19.1766C18.1588 19.0874 16.9009 18.8299 15.7024 18.4337L16.891 17.2551ZM8.07573 3.36859H4.60907C4.06431 3.36859 3.61859 3.81431 3.61859 4.35907C3.61859 13.6596 11.1561 21.1972 20.4567 21.1972C21.0014 21.1972 21.4472 20.7514 21.4472 20.2067V16.7499C21.4472 16.2052 21.0014 15.7594 20.4567 15.7594C19.2285 15.7594 18.03 15.5614 16.9207 15.1949C16.8216 15.1553 16.7127 15.1454 16.6136 15.1454C16.3561 15.1454 16.1085 15.2444 15.9104 15.4326L13.7314 17.6116C10.9283 16.1754 8.6304 13.8874 7.20411 11.0844L9.38316 8.90535C9.6605 8.62802 9.73973 8.24173 9.63078 7.89507C9.26431 6.78573 9.06621 5.59716 9.06621 4.35907C9.06621 3.81431 8.6205 3.36859 8.07573 3.36859Z" fill="currentColor"/>
</g>
<defs>
<clipPath id="clip0_37_1850">
<rect width="24" height="24" fill="currentColor" transform="translate(0.41861 0.168579)"/>
</clipPath>
</defs>
</svg>
