<svg viewBox="0 0 40 40" fill="none" xmlns="http://www.w3.org/2000/svg">
<path fill-rule="evenodd" clip-rule="evenodd" d="M32.6613 7.76643C29.3567 4.46177 24.9504 2.69928 20.3239 2.69928C10.6302 2.69928 2.69904 10.6305 2.69904 20.3242C2.69904 23.4085 3.58029 26.4929 5.12247 29.1366L2.69904 37.949L11.9521 35.5256C14.5958 36.8475 17.4599 37.7287 20.3239 37.7287C30.0176 37.7287 37.9488 29.7975 37.9488 20.1038C37.9488 15.4773 35.966 11.0711 32.6613 7.76643ZM20.3239 34.8647C17.6802 34.8647 15.0365 34.2037 12.8333 32.8819L12.3927 32.6616L6.88493 34.2037L8.42713 28.9163L7.98648 28.2553C6.44431 25.8319 5.78337 23.1882 5.78337 20.5445C5.78337 12.6133 12.3927 6.00394 20.3239 6.00394C24.2895 6.00394 27.8145 7.54612 30.6785 10.1898C33.5426 13.0539 34.8644 16.5789 34.8644 20.5445C34.8644 28.2553 28.4754 34.8647 20.3239 34.8647ZM28.2551 23.8491C27.8145 23.6288 25.6114 22.5273 25.1708 22.5273C24.7302 22.3069 24.5098 22.3069 24.2895 22.7476C24.0692 23.1882 23.188 24.0694 22.9677 24.5101C22.7474 24.7304 22.527 24.7304 22.0864 24.7304C21.6457 24.5101 20.3239 24.0694 18.5614 22.5273C17.2396 21.4257 16.3583 19.8835 16.138 19.4429C15.9177 19.0023 16.138 18.782 16.3583 18.5617C16.5786 18.3414 16.7989 18.121 17.0192 17.9007C17.2396 17.6804 17.2396 17.4601 17.4599 17.2398C17.6802 17.0195 17.4599 16.7992 17.4599 16.5789C17.4599 16.3586 16.5786 14.1554 16.138 13.2742C15.9177 12.6133 15.4771 12.6133 15.2568 12.6133C15.0365 12.6133 14.8161 12.6133 14.3755 12.6133C14.1552 12.6133 13.7146 12.6133 13.2739 13.0539C12.8333 13.4945 11.7318 14.5961 11.7318 16.7992C11.7318 19.0023 13.2739 20.9851 13.4943 21.4257C13.7146 21.646 16.5786 26.2725 20.9848 28.035C24.7301 29.5772 25.3911 29.1366 26.2723 29.1366C27.1536 29.1366 28.916 28.035 29.1363 27.1538C29.577 26.0522 29.577 25.171 29.3567 25.171C29.1364 24.0694 28.6957 24.0694 28.2551 23.8491Z" fill="currentColor"/>
</svg>
